<?xml version="1.0" encoding="utf-8"?>
<!-- Generator: Adobe Illustrator 26.0.1, SVG Export Plug-In . SVG Version: 6.00 Build 0)  -->
<svg version="1.1" id="Layer_1" xmlns="http://www.w3.org/2000/svg" xmlns:xlink="http://www.w3.org/1999/xlink" x="0px" y="0px"
	 viewBox="0 0 395.4 293.4" style="enable-background:new 0 0 395.4 293.4;" xml:space="preserve">
<g>
	<path d="M41.6,145.5l82.6-82.6c2.5-2.5,2.5-6.6,0-9.1l-10.4-10.4c-2.5-2.5-6.6-2.5-9.1,0l-87.2,87.2c0,0,0,0,0,0L7.2,140.9
		c-1.1,1.1-1.7,2.5-1.9,3.9c0,0.2,0,0.4,0,0.6c0,0.4,0,0.8,0.1,1.2c0.1,0.4,0.2,0.8,0.4,1.2c0.3,0.8,0.8,1.5,1.4,2.1l0,0l10.4,10.4
		c0,0,0,0,0,0l87.2,87.2c2.5,2.5,6.6,2.5,9.1,0l10.4-10.4c2.5-2.5,2.5-6.6,0-9.1L41.6,145.5z"/>
	<path d="M246.4,7.4l-14.1-4.1c-3.4-1-7,0.9-8,4.4L144.6,278c-1,3.4,0.9,7,4.4,8l14.1,4.1c3.4,1,7-0.9,8-4.4l79.6-270.4
		C251.8,12,249.8,8.4,246.4,7.4z"/>
	<path d="M390.1,144.9c-0.1-1.4-0.8-2.8-1.9-3.9l-10.4-10.4c0,0,0,0,0,0l-87.2-87.2c-2.5-2.5-6.6-2.5-9.1,0l-10.4,10.4
		c-2.5,2.5-2.5,6.6,0,9.1l82.6,82.6l-82.6,82.6c-2.5,2.5-2.5,6.6,0,9.1l10.4,10.4c2.5,2.5,6.6,2.5,9.1,0l87.2-87.2c0,0,0,0,0,0
		l10.4-10.4l0,0c0.6-0.6,1.1-1.4,1.4-2.1c0.2-0.4,0.3-0.8,0.4-1.2c0.1-0.4,0.1-0.8,0.1-1.2C390.1,145.3,390.1,145.1,390.1,144.9z"/>
</g>
</svg>
